<?xml version="1.0" encoding="utf-8"?><svg viewBox="0 0 502.66 502.66" xmlns="http://www.w3.org/2000/svg" xmlns:xlink="http://www.w3.org/1999/xlink"><style>:root>svg{display:none}:root>svg:target{display:block}</style><svg viewBox="0 0 9 15" id="arr-right" xmlns="http://www.w3.org/2000/svg"><path d="m1 1 6 6.477L1 14"/></svg><svg viewBox="0 0 502.664 502.664" xml:space="preserve" id="icon" xmlns="http://www.w3.org/2000/svg"><path d="M153.821 358.226 0 274.337v-46.463l153.821-83.414v54.574L46.636 250.523l107.185 53.431v54.272zm26.273 29.358L282.103 115.08h32.227L212.084 387.584h-31.99zm168.749-29.358v-54.272l107.164-52.999-107.164-52.59v-53.927l153.821 83.522v46.183l-153.821 84.083z"/></svg><svg viewBox="0 0 102 38" id="logo" xmlns="http://www.w3.org/2000/svg"><g clip-path="url(#ca)"><path d="m10.145 14.235 9.354-12.188L16.89 0 6 14.237 16.904 28.5l2.596-2.028-9.355-12.237ZM0 28.5h3V.75H0V28.5Z"/><path fill-rule="evenodd" clip-rule="evenodd" d="M26.357 27.594c1.325.944 2.955 1.415 4.893 1.415 1.923 0 3.573-.471 4.95-1.415 1.389-.956 2.452-2.245 3.191-3.868.74-1.622 1.109-3.453 1.109-5.49 0-2.038-.37-3.868-1.108-5.49-.74-1.623-1.803-2.9-3.193-3.83C34.824 7.971 33.18 7.5 31.27 7.5c-1.937 0-3.574.465-4.913 1.396a8.262 8.262 0 0 0-1.568 1.433V8.066H21.75V37.5h3.422V26.563c.361.379.756.722 1.184 1.031Zm-1.568-9.359c0-1.508.217-2.836.65-3.98.433-1.158 1.09-2.057 1.968-2.698.88-.654 1.988-.981 3.326-.981 1.402 0 2.555.339 3.46 1.018.917.68 1.593 1.598 2.025 2.755.446 1.157.67 2.453.67 3.886 0 1.448-.224 2.755-.669 3.925-.446 1.157-1.115 2.076-2.007 2.755-.893.68-2.02 1.02-3.383 1.02-1.39 0-2.53-.328-3.422-.982-.892-.667-1.554-1.578-1.987-2.736-.42-1.17-.631-2.497-.631-3.982Zm22.74 9.68c1.517.89 3.289 1.335 5.315 1.335 2.001 0 3.805-.496 5.41-1.488 1.62-1.005 2.83-2.416 3.633-4.235l-3.27-1.126c-.572 1.17-1.363 2.067-2.37 2.69-1.007.623-2.191.935-3.556.935-2.026 0-3.587-.668-4.684-2.003-.947-1.155-1.486-2.72-1.613-4.694H62.23c.102-2.442-.217-4.547-.955-6.315-.727-1.768-1.823-3.129-3.289-4.083-1.452-.954-3.218-1.431-5.295-1.431-2.002 0-3.748.452-5.239 1.354-1.479.89-2.632 2.163-3.46 3.817-.829 1.64-1.243 3.586-1.243 5.838 0 2.149.42 4.032 1.261 5.647.842 1.603 2.014 2.855 3.518 3.758v.001ZM58.703 16.6c-.188-1.788-.675-3.174-1.461-4.159-.995-1.26-2.473-1.89-4.436-1.89-2.103 0-3.702.675-4.798 2.024-.823 1.012-1.337 2.353-1.542 4.025h12.237Zm11.892 12.65c-1.504 0-2.766-.28-3.785-.84-1.008-.572-1.772-1.322-2.295-2.25a6.236 6.236 0 0 1-.764-3.053c0-1.082.199-2.016.597-2.805a5.446 5.446 0 0 1 1.715-1.984c.734-.535 1.61-.954 2.63-1.26a29.45 29.45 0 0 1 3.208-.686c1.193-.203 2.4-.388 3.617-.554.772-.105 1.512-.207 2.219-.306-.038-1.563-.399-2.738-1.082-3.529-.745-.877-2.038-1.316-3.878-1.316-1.218 0-2.287.286-3.207.858-.908.56-1.549 1.476-1.921 2.748l-3.152-.973c.485-1.806 1.424-3.225 2.816-4.255 1.392-1.03 3.226-1.545 5.501-1.545 1.828 0 3.394.338 4.7 1.011 1.317.662 2.262 1.667 2.834 3.015.292.66.475 1.361.541 2.079.075.738.112 1.513.112 2.328v12.745h-2.947v-3.209c-.672 1.05-1.505 1.883-2.499 2.503-1.354.852-3.008 1.278-4.96 1.278Zm.504-2.843c1.193 0 2.225-.216 3.095-.648.883-.446 1.591-1.024 2.126-1.736.524-.7.88-1.509 1.044-2.367a7.973 7.973 0 0 0 .299-2.117c.013-.434.024-.812.03-1.135-.683.095-1.358.187-2.025.276a70.69 70.69 0 0 0-2.966.458c-.85.134-1.69.319-2.517.553a8.106 8.106 0 0 0-1.549.687c-.462.27-.857.643-1.155 1.088-.286.432-.43.973-.43 1.621 0 .56.137 1.095.411 1.603.286.51.72.922 1.305 1.24.597.319 1.374.477 2.332.477Z"/><path d="M83.25 26.075v2.942c1.375.282 2.466.308 3.273.077.808-.218 1.426-.698 1.855-1.442.428-.756.763-1.763 1.002-3.019.151-.73.29-1.596.417-2.596.139-1.012.264-2.102.378-3.269.113-1.179.22-2.39.322-3.634.113-1.243.207-2.455.283-3.634h7.852v17.517H102V8.25H87.716c-.114 2.051-.24 3.974-.38 5.769a130.564 130.564 0 0 1-.434 4.922c-.152 1.5-.335 2.86-.55 4.077-.125.769-.29 1.41-.491 1.922-.19.5-.486.853-.889 1.058-.391.193-.965.218-1.722.077Z"/></g><defs><clipPath id="ca"><path d="M0 0h102v37.5H0z"/></clipPath></defs></svg></svg>